<mxfile host="app.diagrams.net" modified="2023-07-11T16:08:53.609Z" agent="Mozilla/5.0 (Windows NT 10.0; Win64; x64) AppleWebKit/537.36 (KHTML, like Gecko) Chrome/114.0.0.0 Safari/537.36" etag="5_Mde2N6Sqa5iL7VmXz1" version="21.6.1" type="device">
  <diagram name="Page-1" id="74e2e168-ea6b-b213-b513-2b3c1d86103e">
    <mxGraphModel dx="1062" dy="541" grid="1" gridSize="10" guides="1" tooltips="1" connect="1" arrows="1" fold="1" page="1" pageScale="1" pageWidth="1100" pageHeight="850" background="none" math="0" shadow="0">
      <root>
        <mxCell id="0" />
        <mxCell id="1" parent="0" />
        <mxCell id="77e6c97f196da883-1" value="Agent Flow" style="swimlane;html=1;childLayout=stackLayout;startSize=20;rounded=0;shadow=0;labelBackgroundColor=none;strokeWidth=1;fontFamily=Verdana;fontSize=8;align=center;" parent="1" vertex="1">
          <mxGeometry x="70" y="40" width="960" height="750" as="geometry" />
        </mxCell>
        <mxCell id="77e6c97f196da883-2" value="Bootstrapping" style="swimlane;html=1;startSize=20;" parent="77e6c97f196da883-1" vertex="1">
          <mxGeometry y="20" width="160" height="730" as="geometry" />
        </mxCell>
        <mxCell id="77e6c97f196da883-8" value="Identify&lt;br&gt;Request" style="rounded=1;whiteSpace=wrap;html=1;shadow=0;labelBackgroundColor=none;strokeWidth=1;fontFamily=Verdana;fontSize=8;align=center;" parent="77e6c97f196da883-2" vertex="1">
          <mxGeometry x="20" y="140" width="100" height="60" as="geometry" />
        </mxCell>
        <mxCell id="hg22XOWcYsOTt6f-AZST-9" style="edgeStyle=orthogonalEdgeStyle;rounded=0;orthogonalLoop=1;jettySize=auto;html=1;" edge="1" parent="77e6c97f196da883-2" source="hg22XOWcYsOTt6f-AZST-8">
          <mxGeometry relative="1" as="geometry">
            <mxPoint x="70" y="335" as="targetPoint" />
            <Array as="points">
              <mxPoint x="70" y="325" />
              <mxPoint x="70" y="325" />
            </Array>
          </mxGeometry>
        </mxCell>
        <mxCell id="hg22XOWcYsOTt6f-AZST-11" style="edgeStyle=orthogonalEdgeStyle;rounded=0;orthogonalLoop=1;jettySize=auto;html=1;entryX=-0.007;entryY=0.611;entryDx=0;entryDy=0;entryPerimeter=0;" edge="1" parent="77e6c97f196da883-2" source="hg22XOWcYsOTt6f-AZST-8" target="hg22XOWcYsOTt6f-AZST-10">
          <mxGeometry relative="1" as="geometry">
            <mxPoint x="10" y="700" as="targetPoint" />
            <Array as="points">
              <mxPoint x="10" y="265" />
              <mxPoint x="10" y="697" />
            </Array>
          </mxGeometry>
        </mxCell>
        <mxCell id="hg22XOWcYsOTt6f-AZST-12" value="Fail" style="edgeLabel;html=1;align=center;verticalAlign=middle;resizable=0;points=[];" vertex="1" connectable="0" parent="hg22XOWcYsOTt6f-AZST-11">
          <mxGeometry x="-0.9589" y="-2" relative="1" as="geometry">
            <mxPoint x="1" y="-8" as="offset" />
          </mxGeometry>
        </mxCell>
        <mxCell id="hg22XOWcYsOTt6f-AZST-8" value="Success" style="rhombus;whiteSpace=wrap;html=1;" vertex="1" parent="77e6c97f196da883-2">
          <mxGeometry x="40" y="235" width="60" height="60" as="geometry" />
        </mxCell>
        <mxCell id="hg22XOWcYsOTt6f-AZST-10" value="Exit Program" style="rounded=1;whiteSpace=wrap;html=1;shadow=0;labelBackgroundColor=none;strokeWidth=1;fontFamily=Verdana;fontSize=8;align=center;" vertex="1" parent="77e6c97f196da883-2">
          <mxGeometry x="30" y="660" width="100" height="60" as="geometry" />
        </mxCell>
        <mxCell id="hg22XOWcYsOTt6f-AZST-22" style="edgeStyle=orthogonalEdgeStyle;rounded=0;orthogonalLoop=1;jettySize=auto;html=1;endArrow=none;endFill=0;" edge="1" parent="77e6c97f196da883-2" source="hg22XOWcYsOTt6f-AZST-17">
          <mxGeometry relative="1" as="geometry">
            <mxPoint x="10" y="460" as="targetPoint" />
          </mxGeometry>
        </mxCell>
        <mxCell id="hg22XOWcYsOTt6f-AZST-17" value="Success" style="rhombus;whiteSpace=wrap;html=1;" vertex="1" parent="77e6c97f196da883-2">
          <mxGeometry x="40" y="430" width="60" height="60" as="geometry" />
        </mxCell>
        <mxCell id="hg22XOWcYsOTt6f-AZST-16" value="Fail" style="edgeLabel;html=1;align=center;verticalAlign=middle;resizable=0;points=[];" vertex="1" connectable="0" parent="77e6c97f196da883-2">
          <mxGeometry x="29.27586206896558" y="450" as="geometry" />
        </mxCell>
        <mxCell id="hg22XOWcYsOTt6f-AZST-14" value="Dealer&lt;br&gt;Request" style="rounded=1;whiteSpace=wrap;html=1;shadow=0;labelBackgroundColor=none;strokeWidth=1;fontFamily=Verdana;fontSize=8;align=center;" vertex="1" parent="77e6c97f196da883-2">
          <mxGeometry x="20" y="335" width="100" height="60" as="geometry" />
        </mxCell>
        <mxCell id="hg22XOWcYsOTt6f-AZST-27" style="edgeStyle=orthogonalEdgeStyle;rounded=0;orthogonalLoop=1;jettySize=auto;html=1;entryX=0.5;entryY=0;entryDx=0;entryDy=0;" edge="1" parent="77e6c97f196da883-2" source="hg22XOWcYsOTt6f-AZST-25" target="77e6c97f196da883-8">
          <mxGeometry relative="1" as="geometry" />
        </mxCell>
        <mxCell id="hg22XOWcYsOTt6f-AZST-25" value="Load&lt;br&gt;Configurations" style="rounded=1;whiteSpace=wrap;html=1;shadow=0;labelBackgroundColor=none;strokeWidth=1;fontFamily=Verdana;fontSize=8;align=center;" vertex="1" parent="77e6c97f196da883-2">
          <mxGeometry x="20" y="50" width="100" height="60" as="geometry" />
        </mxCell>
        <mxCell id="77e6c97f196da883-26" style="edgeStyle=orthogonalEdgeStyle;rounded=1;html=1;labelBackgroundColor=none;startArrow=none;startFill=0;startSize=5;endArrow=classicThin;endFill=1;endSize=5;jettySize=auto;orthogonalLoop=1;strokeWidth=1;fontFamily=Verdana;fontSize=8" parent="77e6c97f196da883-1" source="77e6c97f196da883-8" target="77e6c97f196da883-11" edge="1">
          <mxGeometry relative="1" as="geometry" />
        </mxCell>
        <mxCell id="77e6c97f196da883-3" value="Identifying" style="swimlane;html=1;startSize=20;" parent="77e6c97f196da883-1" vertex="1">
          <mxGeometry x="160" y="20" width="160" height="730" as="geometry" />
        </mxCell>
        <mxCell id="77e6c97f196da883-11" value="Identify&lt;br&gt;Response" style="rounded=1;whiteSpace=wrap;html=1;shadow=0;labelBackgroundColor=none;strokeWidth=1;fontFamily=Verdana;fontSize=8;align=center;" parent="77e6c97f196da883-3" vertex="1">
          <mxGeometry x="20" y="140" width="100" height="60" as="geometry" />
        </mxCell>
        <mxCell id="hg22XOWcYsOTt6f-AZST-19" value="Dealer&lt;br&gt;Response" style="rounded=1;whiteSpace=wrap;html=1;shadow=0;labelBackgroundColor=none;strokeWidth=1;fontFamily=Verdana;fontSize=8;align=center;" vertex="1" parent="77e6c97f196da883-3">
          <mxGeometry x="20" y="335" width="100" height="60" as="geometry" />
        </mxCell>
        <mxCell id="77e6c97f196da883-4" value="ACL Initialization" style="swimlane;html=1;startSize=20;" parent="77e6c97f196da883-1" vertex="1">
          <mxGeometry x="320" y="20" width="160" height="730" as="geometry" />
        </mxCell>
        <mxCell id="77e6c97f196da883-12" value="Initialize ACL" style="rounded=1;whiteSpace=wrap;html=1;shadow=0;labelBackgroundColor=none;strokeWidth=1;fontFamily=Verdana;fontSize=8;align=center;" parent="77e6c97f196da883-4" vertex="1">
          <mxGeometry x="30" y="50" width="100" height="60" as="geometry" />
        </mxCell>
        <mxCell id="hg22XOWcYsOTt6f-AZST-31" value="Heartbeat" style="rounded=1;whiteSpace=wrap;html=1;shadow=0;labelBackgroundColor=none;strokeWidth=1;fontFamily=Verdana;fontSize=8;align=center;" vertex="1" parent="77e6c97f196da883-4">
          <mxGeometry x="30" y="430" width="100" height="60" as="geometry" />
        </mxCell>
        <mxCell id="77e6c97f196da883-5" value="AICL Initialization" style="swimlane;html=1;startSize=20;strokeColor=default;" parent="77e6c97f196da883-1" vertex="1">
          <mxGeometry x="480" y="20" width="160" height="730" as="geometry" />
        </mxCell>
        <mxCell id="hg22XOWcYsOTt6f-AZST-37" style="edgeStyle=orthogonalEdgeStyle;rounded=0;orthogonalLoop=1;jettySize=auto;html=1;entryX=0.5;entryY=0;entryDx=0;entryDy=0;" edge="1" parent="77e6c97f196da883-5" source="hg22XOWcYsOTt6f-AZST-29" target="hg22XOWcYsOTt6f-AZST-36">
          <mxGeometry relative="1" as="geometry" />
        </mxCell>
        <mxCell id="hg22XOWcYsOTt6f-AZST-29" value="Initialize AICL" style="rounded=1;whiteSpace=wrap;html=1;shadow=0;labelBackgroundColor=none;strokeWidth=1;fontFamily=Verdana;fontSize=8;align=center;" vertex="1" parent="77e6c97f196da883-5">
          <mxGeometry x="30" y="50" width="100" height="60" as="geometry" />
        </mxCell>
        <mxCell id="hg22XOWcYsOTt6f-AZST-40" style="edgeStyle=orthogonalEdgeStyle;rounded=0;orthogonalLoop=1;jettySize=auto;html=1;entryX=0.5;entryY=0;entryDx=0;entryDy=0;" edge="1" parent="77e6c97f196da883-5" source="hg22XOWcYsOTt6f-AZST-36" target="hg22XOWcYsOTt6f-AZST-39">
          <mxGeometry relative="1" as="geometry" />
        </mxCell>
        <mxCell id="hg22XOWcYsOTt6f-AZST-36" value="Start&lt;br&gt;AICLWs&lt;br&gt;Server" style="rounded=1;whiteSpace=wrap;html=1;shadow=0;labelBackgroundColor=none;strokeWidth=1;fontFamily=Verdana;fontSize=8;align=center;" vertex="1" parent="77e6c97f196da883-5">
          <mxGeometry x="30" y="150" width="100" height="60" as="geometry" />
        </mxCell>
        <mxCell id="hg22XOWcYsOTt6f-AZST-39" value="New Connection" style="rounded=1;whiteSpace=wrap;html=1;shadow=0;labelBackgroundColor=none;strokeWidth=1;fontFamily=Verdana;fontSize=8;align=center;" vertex="1" parent="77e6c97f196da883-5">
          <mxGeometry x="30" y="250" width="100" height="60" as="geometry" />
        </mxCell>
        <mxCell id="77e6c97f196da883-6" value="Processing" style="swimlane;html=1;startSize=20;" parent="77e6c97f196da883-1" vertex="1">
          <mxGeometry x="640" y="20" width="160" height="730" as="geometry" />
        </mxCell>
        <mxCell id="hg22XOWcYsOTt6f-AZST-43" style="edgeStyle=orthogonalEdgeStyle;rounded=0;orthogonalLoop=1;jettySize=auto;html=1;entryX=0.5;entryY=0;entryDx=0;entryDy=0;" edge="1" parent="77e6c97f196da883-6" source="hg22XOWcYsOTt6f-AZST-38" target="hg22XOWcYsOTt6f-AZST-42">
          <mxGeometry relative="1" as="geometry" />
        </mxCell>
        <mxCell id="hg22XOWcYsOTt6f-AZST-38" value="Retrieve Data" style="rounded=1;whiteSpace=wrap;html=1;shadow=0;labelBackgroundColor=none;strokeWidth=1;fontFamily=Verdana;fontSize=8;align=center;" vertex="1" parent="77e6c97f196da883-6">
          <mxGeometry x="30" y="50" width="100" height="60" as="geometry" />
        </mxCell>
        <mxCell id="hg22XOWcYsOTt6f-AZST-45" style="edgeStyle=orthogonalEdgeStyle;rounded=0;orthogonalLoop=1;jettySize=auto;html=1;entryX=0.5;entryY=0;entryDx=0;entryDy=0;" edge="1" parent="77e6c97f196da883-6" source="hg22XOWcYsOTt6f-AZST-42" target="hg22XOWcYsOTt6f-AZST-44">
          <mxGeometry relative="1" as="geometry" />
        </mxCell>
        <mxCell id="hg22XOWcYsOTt6f-AZST-42" value="Deserialization&lt;br&gt;By Data Type" style="rounded=1;whiteSpace=wrap;html=1;shadow=0;labelBackgroundColor=none;strokeWidth=1;fontFamily=Verdana;fontSize=8;align=center;" vertex="1" parent="77e6c97f196da883-6">
          <mxGeometry x="30" y="150" width="100" height="60" as="geometry" />
        </mxCell>
        <mxCell id="hg22XOWcYsOTt6f-AZST-44" value="Store Report Data" style="rounded=1;whiteSpace=wrap;html=1;shadow=0;labelBackgroundColor=none;strokeWidth=1;fontFamily=Verdana;fontSize=8;align=center;" vertex="1" parent="77e6c97f196da883-6">
          <mxGeometry x="30" y="250" width="100" height="60" as="geometry" />
        </mxCell>
        <mxCell id="hg22XOWcYsOTt6f-AZST-46" value="10 Second&lt;br&gt;Timer" style="rounded=1;whiteSpace=wrap;html=1;shadow=0;labelBackgroundColor=none;strokeWidth=1;fontFamily=Verdana;fontSize=8;align=center;" vertex="1" parent="77e6c97f196da883-6">
          <mxGeometry x="30" y="350" width="100" height="60" as="geometry" />
        </mxCell>
        <mxCell id="77e6c97f196da883-7" value="Transmitting" style="swimlane;html=1;startSize=20;" parent="77e6c97f196da883-1" vertex="1">
          <mxGeometry x="800" y="20" width="160" height="730" as="geometry" />
        </mxCell>
        <mxCell id="hg22XOWcYsOTt6f-AZST-55" value="Send Reports" style="rounded=1;whiteSpace=wrap;html=1;shadow=0;labelBackgroundColor=none;strokeWidth=1;fontFamily=Verdana;fontSize=8;align=center;" vertex="1" parent="77e6c97f196da883-7">
          <mxGeometry x="30" y="50" width="100" height="60" as="geometry" />
        </mxCell>
        <mxCell id="hg22XOWcYsOTt6f-AZST-18" style="edgeStyle=orthogonalEdgeStyle;rounded=1;html=1;labelBackgroundColor=none;startArrow=none;startFill=0;startSize=5;endArrow=classicThin;endFill=1;endSize=5;jettySize=auto;orthogonalLoop=1;strokeWidth=1;fontFamily=Verdana;fontSize=8" edge="1" parent="77e6c97f196da883-1" source="hg22XOWcYsOTt6f-AZST-14" target="hg22XOWcYsOTt6f-AZST-19">
          <mxGeometry relative="1" as="geometry" />
        </mxCell>
        <mxCell id="hg22XOWcYsOTt6f-AZST-24" style="edgeStyle=orthogonalEdgeStyle;rounded=1;orthogonalLoop=1;jettySize=auto;html=1;" edge="1" parent="77e6c97f196da883-1" source="hg22XOWcYsOTt6f-AZST-19">
          <mxGeometry relative="1" as="geometry">
            <mxPoint x="70" y="450" as="targetPoint" />
            <Array as="points">
              <mxPoint x="230" y="430" />
              <mxPoint x="70" y="430" />
            </Array>
          </mxGeometry>
        </mxCell>
        <mxCell id="77e6c97f196da883-27" style="edgeStyle=orthogonalEdgeStyle;rounded=1;html=1;labelBackgroundColor=none;startArrow=none;startFill=0;startSize=5;endArrow=classicThin;endFill=1;endSize=5;jettySize=auto;orthogonalLoop=1;strokeWidth=1;fontFamily=Verdana;fontSize=8;entryX=0.5;entryY=0;entryDx=0;entryDy=0;" parent="77e6c97f196da883-1" source="77e6c97f196da883-11" target="hg22XOWcYsOTt6f-AZST-8" edge="1">
          <mxGeometry relative="1" as="geometry">
            <Array as="points">
              <mxPoint x="230" y="240" />
              <mxPoint x="70" y="240" />
            </Array>
            <mxPoint x="70" y="180" as="targetPoint" />
          </mxGeometry>
        </mxCell>
        <mxCell id="hg22XOWcYsOTt6f-AZST-26" style="edgeStyle=orthogonalEdgeStyle;rounded=0;orthogonalLoop=1;jettySize=auto;html=1;entryX=0;entryY=0.5;entryDx=0;entryDy=0;" edge="1" parent="77e6c97f196da883-1" source="hg22XOWcYsOTt6f-AZST-25" target="77e6c97f196da883-12">
          <mxGeometry relative="1" as="geometry" />
        </mxCell>
        <mxCell id="hg22XOWcYsOTt6f-AZST-32" style="edgeStyle=orthogonalEdgeStyle;rounded=0;orthogonalLoop=1;jettySize=auto;html=1;entryX=0;entryY=0.5;entryDx=0;entryDy=0;" edge="1" parent="77e6c97f196da883-1" source="hg22XOWcYsOTt6f-AZST-17" target="hg22XOWcYsOTt6f-AZST-31">
          <mxGeometry relative="1" as="geometry" />
        </mxCell>
        <mxCell id="hg22XOWcYsOTt6f-AZST-33" style="edgeStyle=orthogonalEdgeStyle;rounded=0;orthogonalLoop=1;jettySize=auto;html=1;entryX=0;entryY=0.5;entryDx=0;entryDy=0;" edge="1" parent="77e6c97f196da883-1" source="hg22XOWcYsOTt6f-AZST-31" target="hg22XOWcYsOTt6f-AZST-29">
          <mxGeometry relative="1" as="geometry">
            <Array as="points">
              <mxPoint x="490" y="480" />
              <mxPoint x="490" y="100" />
            </Array>
          </mxGeometry>
        </mxCell>
        <mxCell id="hg22XOWcYsOTt6f-AZST-41" style="edgeStyle=orthogonalEdgeStyle;rounded=0;orthogonalLoop=1;jettySize=auto;html=1;entryX=0;entryY=0.5;entryDx=0;entryDy=0;" edge="1" parent="77e6c97f196da883-1" source="hg22XOWcYsOTt6f-AZST-39" target="hg22XOWcYsOTt6f-AZST-38">
          <mxGeometry relative="1" as="geometry" />
        </mxCell>
        <mxCell id="hg22XOWcYsOTt6f-AZST-56" style="edgeStyle=orthogonalEdgeStyle;rounded=0;orthogonalLoop=1;jettySize=auto;html=1;entryX=0;entryY=0.5;entryDx=0;entryDy=0;" edge="1" parent="77e6c97f196da883-1" source="hg22XOWcYsOTt6f-AZST-46" target="hg22XOWcYsOTt6f-AZST-55">
          <mxGeometry relative="1" as="geometry" />
        </mxCell>
      </root>
    </mxGraphModel>
  </diagram>
</mxfile>
